<svg width="70" height="70" viewBox="0 0 70 70" fill="none" xmlns="http://www.w3.org/2000/svg">
<circle cx="35" cy="35" r="35" fill="#F78434"/>
<path fill-rule="evenodd" clip-rule="evenodd" d="M29.4252 40.1037C29.4252 37.0535 31.9067 34.5718 34.9571 34.5718C38.0074 34.5718 40.489 37.0535 40.489 40.1037C40.489 43.1539 38.0073 45.6356 34.9571 45.6356C31.9068 45.6356 29.4252 43.154 29.4252 40.1037ZM31.1225 40.7647L33.8597 43.5019L38.7916 38.57L37.5486 37.327L33.8597 41.016L32.3655 39.5218L31.1225 40.7647Z" fill="white"/>
<path d="M40.5769 23.4232H38.3803C38.3803 21.5326 36.8477 20 34.9571 20C33.0665 20 31.5338 21.5326 31.5338 23.4232H29.3373V27.8115H40.5768V23.4232H40.5769Z" fill="white"/>
<path fill-rule="evenodd" clip-rule="evenodd" d="M42.3346 29.5693V23.4232H45.8736V50H24.0404V23.4232H27.5794V29.5693H42.3346ZM27.6673 40.1037C27.6673 44.1233 30.9374 47.3935 34.957 47.3935C38.9766 47.3935 42.2467 44.1233 42.2467 40.1037C42.2467 36.0843 38.9765 32.8141 34.957 32.8141C30.9375 32.8141 27.6673 36.0842 27.6673 40.1037Z" fill="white"/>
</svg>
