<svg width="70" height="70" viewBox="0 0 70 70" fill="none" xmlns="http://www.w3.org/2000/svg">
<circle cx="35" cy="35" r="35" fill="#58BEBF" fill-opacity="0.2"/>
<path d="M51.262 30.8582H43.8781C41.6846 30.8582 39.9065 32.6364 39.9065 34.8299V46.023C39.9065 48.2165 41.6846 49.9946 43.8781 49.9946H52.1644L53.5631 33.3609C53.6764 32.014 52.6136 30.8582 51.262 30.8582Z" fill="#58BEBF"/>
<path d="M35.9351 20.0054H34.0919L33.3796 28.8327C33.1773 31.3401 31.0833 33.2719 28.5678 33.2719H27.1838V47.5809H31.8754C31.8754 47.6151 31.8753 47.6491 31.8753 47.683C31.8738 48.9594 32.9081 49.9946 34.1845 49.9946H39.235C38.319 48.9252 37.7638 47.5381 37.7638 46.0229V34.8298C37.7638 32.9734 38.5964 31.3088 39.9066 30.1865V23.977C39.9067 21.7836 38.1285 20.0054 35.9351 20.0054V20.0054Z" fill="#58BEBF"/>
<path d="M17 31.8373H25.0409V49.0154H17V31.8373Z" fill="#58BEBF"/>
</svg>
