<svg width="24" height="19" viewBox="0 0 24 19" fill="none" xmlns="http://www.w3.org/2000/svg">
<path fill-rule="evenodd" clip-rule="evenodd" d="M2.10939 0H21.8906C22.2154 0 22.5196 0.0799219 22.7947 0.211594L14.3625 8.64333L14.3622 8.64352L14.362 8.64384L11.9531 10.9589L1.20569 0.211406C1.4807 0.0798281 1.78469 0 2.10939 0ZM15.8538 9.14077L23.7889 1.20605C23.9204 1.48098 24 1.78491 24 2.10943V16.1719C24 16.4966 23.9202 16.8006 23.7886 17.0756L15.8538 9.14077ZM0.211406 1.20569C0.0798281 1.4807 0 1.78469 0 2.10939V16.1719C0 16.4964 0.0797344 16.8004 0.211219 17.0754L8.14636 9.14064L0.211406 1.20569ZM12.4503 12.4503L14.8594 10.135L22.7943 18.0698C22.5193 18.2014 22.2153 18.2812 21.8906 18.2812H2.10935C1.78456 18.2812 1.48038 18.2013 1.20532 18.0697L9.1406 10.1349L11.456 12.4503C11.5933 12.5876 11.7733 12.6563 11.9532 12.6563C12.133 12.6563 12.3129 12.5876 12.4503 12.4503Z" fill="#E8E8E8"/>
</svg>
