<svg width="188" height="38" viewBox="0 0 188 38" fill="none" xmlns="http://www.w3.org/2000/svg">
<path fill-rule="evenodd" clip-rule="evenodd" d="M115.218 11.9608C114.887 12.1 114.534 12.1696 114.16 12.1696C113.795 12.1696 113.454 12.1 113.138 11.9608C112.821 11.8216 112.54 11.6344 112.295 11.3992C112.05 11.164 111.858 10.8904 111.719 10.5784C111.58 10.2664 111.51 9.93279 111.51 9.57759C111.51 9.21279 111.58 8.87199 111.719 8.55519C111.858 8.23839 112.05 7.95999 112.295 7.71999C112.54 7.47999 112.821 7.29279 113.138 7.15839C113.454 7.02399 113.795 6.95679 114.16 6.95679C114.534 6.95679 114.887 7.02399 115.218 7.15839C115.55 7.29279 115.84 7.47999 116.09 7.71999C116.339 7.95999 116.536 8.23839 116.68 8.55519C116.824 8.87199 116.896 9.21279 116.896 9.57759C116.896 9.93279 116.824 10.2664 116.68 10.5784C116.536 10.8904 116.339 11.164 116.09 11.3992C115.84 11.6344 115.55 11.8216 115.218 11.9608ZM61.5712 28.6V24.712H53.7952V7.61919H48.928V28.6H61.5712ZM69.952 28.8304C71.0848 28.8304 72.1168 28.6504 73.048 28.2904C73.9792 27.9304 74.7784 27.4168 75.4456 26.7496C76.1128 26.0824 76.6312 25.2712 77.0008 24.316C77.3704 23.3608 77.5552 22.288 77.5552 21.0976C77.5552 19.9168 77.3704 18.8536 77.0008 17.908C76.6312 16.9624 76.1128 16.1584 75.4456 15.496C74.7784 14.8336 73.9792 14.3248 73.048 13.9696C72.1168 13.6144 71.0848 13.4368 69.952 13.4368C68.8096 13.4368 67.7704 13.6144 66.8344 13.9696C65.8984 14.3248 65.092 14.8336 64.4152 15.496C63.7384 16.1584 63.2152 16.9624 62.8456 17.908C62.476 18.8536 62.2912 19.9168 62.2912 21.0976C62.2912 22.288 62.476 23.3608 62.8456 24.316C63.2152 25.2712 63.7384 26.0824 64.4152 26.7496C65.092 27.4168 65.8984 27.9304 66.8344 28.2904C67.7704 28.6504 68.8096 28.8304 69.952 28.8304ZM67.6336 24.4312C68.1232 25.156 68.896 25.5184 69.952 25.5184C70.9792 25.5184 71.7352 25.156 72.22 24.4312C72.7048 23.7064 72.9472 22.6048 72.9472 21.1264C72.9472 19.648 72.7048 18.5488 72.22 17.8288C71.7352 17.1088 70.9792 16.7488 69.952 16.7488C68.896 16.7488 68.1232 17.1088 67.6336 17.8288C67.144 18.5488 66.8992 19.648 66.8992 21.1264C66.8992 22.6048 67.144 23.7064 67.6336 24.4312ZM85.2736 33.7408C86.464 33.7408 87.52 33.5896 88.4416 33.2872C89.3632 32.9848 90.1408 32.584 90.7744 32.0848C91.408 31.5856 91.888 31.0144 92.2144 30.3712C92.5408 29.728 92.704 29.0704 92.704 28.3984C92.704 27.6784 92.572 27.0856 92.308 26.62C92.044 26.1544 91.696 25.7824 91.264 25.504C90.832 25.2256 90.3376 25.024 89.7808 24.8992C89.224 24.7744 88.6576 24.6856 88.0816 24.6328C87.5056 24.58 86.9392 24.5464 86.3824 24.532C85.8256 24.5176 85.3312 24.4888 84.8992 24.4456C84.4672 24.4024 84.1192 24.3256 83.8552 24.2152C83.5912 24.1048 83.4592 23.9248 83.4592 23.6752C83.4592 23.4256 83.6224 23.2048 83.9488 23.0128C84.3616 23.0704 84.8032 23.0992 85.2736 23.0992C86.1184 23.0992 86.9104 22.9864 87.6496 22.7608C88.3888 22.5352 89.0296 22.2136 89.572 21.796C90.1144 21.3784 90.5416 20.872 90.8536 20.2768C91.1656 19.6816 91.3216 19.0096 91.3216 18.2608C91.3216 17.8 91.2544 17.3536 91.12 16.9216L92.2144 16.6768C92.5504 16.6 92.788 16.4896 92.9272 16.3456C93.0664 16.2016 93.136 16.0048 93.136 15.7552V14.128H88.6288C88.1488 13.8976 87.628 13.72 87.0664 13.5952C86.5048 13.4704 85.9072 13.408 85.2736 13.408C84.4 13.408 83.5888 13.5208 82.84 13.7464C82.0912 13.972 81.4408 14.2936 80.8888 14.7112C80.3368 15.1288 79.9024 15.6376 79.5856 16.2376C79.2688 16.8376 79.1104 17.512 79.1104 18.2608C79.1104 19.1632 79.3336 19.9552 79.78 20.6368C80.2264 21.3184 80.8384 21.8656 81.616 22.2784C81.2704 22.4416 80.9728 22.6288 80.7232 22.84C80.4736 23.0512 80.2672 23.272 80.104 23.5024C79.9408 23.7328 79.8208 23.9704 79.744 24.2152C79.6672 24.46 79.6288 24.6928 79.6288 24.9136C79.6288 25.4416 79.7296 25.8784 79.9312 26.224C80.1328 26.5696 80.4016 26.8528 80.7376 27.0736C80.0368 27.3328 79.4848 27.6904 79.0816 28.1464C78.6784 28.6024 78.4768 29.1616 78.4768 29.824C78.4768 30.3328 78.6112 30.8224 78.88 31.2928C79.1488 31.7632 79.564 32.1784 80.1256 32.5384C80.6872 32.8984 81.3928 33.1888 82.2424 33.4096C83.092 33.6304 84.1024 33.7408 85.2736 33.7408ZM84.3304 20.1976C84.5944 20.2984 84.9088 20.3488 85.2736 20.3488C86.0128 20.3488 86.548 20.164 86.8792 19.7944C87.2104 19.4248 87.376 18.9472 87.376 18.3616C87.376 17.7568 87.2104 17.2816 86.8792 16.936C86.548 16.5904 86.0128 16.4176 85.2736 16.4176C84.5344 16.4176 83.9992 16.5904 83.668 16.936C83.3368 17.2816 83.1712 17.7568 83.1712 18.3616C83.1712 18.6496 83.212 18.9136 83.2936 19.1536C83.3752 19.3936 83.5024 19.6024 83.6752 19.78C83.848 19.9576 84.0664 20.0968 84.3304 20.1976ZM85.36 30.6736C84.7648 30.6736 84.2728 30.6376 83.884 30.5656C83.4952 30.4936 83.1856 30.3952 82.9552 30.2704C82.7248 30.1456 82.564 29.9968 82.4728 29.824C82.3816 29.6512 82.336 29.4592 82.336 29.248C82.336 28.9504 82.4248 28.684 82.6024 28.4488C82.78 28.2136 83.008 28 83.2864 27.808C83.6992 27.856 84.1168 27.8872 84.5392 27.9016C84.9616 27.916 85.3696 27.9328 85.7632 27.952C86.1568 27.9712 86.524 28 86.8648 28.0384C87.2056 28.0768 87.5032 28.1392 87.7576 28.2256C88.012 28.312 88.2136 28.4272 88.3624 28.5712C88.5112 28.7152 88.5856 28.9072 88.5856 29.1472C88.5856 29.368 88.5376 29.572 88.4416 29.7592C88.3456 29.9464 88.1752 30.1072 87.9304 30.2416C87.6856 30.376 87.3568 30.4816 86.944 30.5584C86.5312 30.6352 86.0032 30.6736 85.36 30.6736ZM104.814 28.2904C103.883 28.6504 102.851 28.8304 101.718 28.8304C100.576 28.8304 99.5368 28.6504 98.6008 28.2904C97.6648 27.9304 96.8584 27.4168 96.1816 26.7496C95.5048 26.0824 94.9816 25.2712 94.612 24.316C94.2424 23.3608 94.0576 22.288 94.0576 21.0976C94.0576 19.9168 94.2424 18.8536 94.612 17.908C94.9816 16.9624 95.5048 16.1584 96.1816 15.496C96.8584 14.8336 97.6648 14.3248 98.6008 13.9696C99.5368 13.6144 100.576 13.4368 101.718 13.4368C102.851 13.4368 103.883 13.6144 104.814 13.9696C105.746 14.3248 106.545 14.8336 107.212 15.496C107.879 16.1584 108.398 16.9624 108.767 17.908C109.137 18.8536 109.322 19.9168 109.322 21.0976C109.322 22.288 109.137 23.3608 108.767 24.316C108.398 25.2712 107.879 26.0824 107.212 26.7496C106.545 27.4168 105.746 27.9304 104.814 28.2904ZM101.718 25.5184C100.662 25.5184 99.8896 25.156 99.4 24.4312C98.9104 23.7064 98.6656 22.6048 98.6656 21.1264C98.6656 19.648 98.9104 18.5488 99.4 17.8288C99.8896 17.1088 100.662 16.7488 101.718 16.7488C102.746 16.7488 103.502 17.1088 103.986 17.8288C104.471 18.5488 104.714 19.648 104.714 21.1264C104.714 22.6048 104.471 23.7064 103.986 24.4312C103.502 25.156 102.746 25.5184 101.718 25.5184ZM116.378 28.6V13.6672H111.914V28.6H116.378ZM124.442 27.6064V33.3376H119.978V13.6672H122.742C123.021 13.6672 123.254 13.7296 123.441 13.8544C123.628 13.9792 123.76 14.1664 123.837 14.416L124.168 15.5104C124.456 15.1936 124.766 14.9056 125.097 14.6464C125.428 14.3872 125.783 14.164 126.162 13.9768C126.542 13.7896 126.95 13.6432 127.386 13.5376C127.823 13.432 128.301 13.3792 128.819 13.3792C129.597 13.3792 130.317 13.552 130.979 13.8976C131.642 14.2432 132.213 14.7424 132.693 15.3952C133.173 16.048 133.55 16.8472 133.823 17.7928C134.097 18.7384 134.234 19.8112 134.234 21.0112C134.234 22.1344 134.078 23.1712 133.766 24.1216C133.454 25.072 133.017 25.8976 132.455 26.5984C131.894 27.2992 131.222 27.8464 130.439 28.24C129.657 28.6336 128.79 28.8304 127.84 28.8304C127.062 28.8304 126.41 28.72 125.882 28.4992C125.354 28.2784 124.874 27.9808 124.442 27.6064ZM126.774 25.5472C126.342 25.5472 125.93 25.4728 125.536 25.324C125.142 25.1752 124.778 24.9136 124.442 24.5392V18.2032C124.634 17.9728 124.826 17.7688 125.018 17.5912C125.21 17.4136 125.418 17.2672 125.644 17.152C125.87 17.0368 126.114 16.948 126.378 16.8856C126.642 16.8232 126.938 16.792 127.264 16.792C127.619 16.792 127.941 16.864 128.229 17.008C128.517 17.152 128.764 17.3896 128.97 17.7208C129.177 18.052 129.338 18.4864 129.453 19.024C129.568 19.5616 129.626 20.224 129.626 21.0112C129.626 21.8368 129.554 22.5376 129.41 23.1136C129.266 23.6896 129.066 24.1576 128.812 24.5176C128.558 24.8776 128.258 25.1392 127.912 25.3024C127.566 25.4656 127.187 25.5472 126.774 25.5472ZM143.27 28.456C142.487 28.7056 141.587 28.8304 140.57 28.8304C140.061 28.8304 139.552 28.7824 139.043 28.6864C138.534 28.5904 138.042 28.4608 137.567 28.2976C137.092 28.1344 136.653 27.94 136.25 27.7144C135.846 27.4888 135.501 27.2464 135.213 26.9872L136.25 25.3456C136.374 25.1536 136.523 25.0024 136.696 24.892C136.869 24.7816 137.094 24.7264 137.373 24.7264C137.632 24.7264 137.865 24.784 138.071 24.8992C138.278 25.0144 138.501 25.1392 138.741 25.2736C138.981 25.408 139.262 25.5328 139.583 25.648C139.905 25.7632 140.31 25.8208 140.8 25.8208C141.146 25.8208 141.438 25.7848 141.678 25.7128C141.918 25.6408 142.11 25.5424 142.254 25.4176C142.398 25.2928 142.504 25.1536 142.571 25C142.638 24.8464 142.672 24.688 142.672 24.5248C142.672 24.2272 142.571 23.9824 142.37 23.7904C142.168 23.5984 141.904 23.4328 141.578 23.2936C141.251 23.1544 140.879 23.0248 140.462 22.9048C140.044 22.7848 139.619 22.648 139.187 22.4944C138.755 22.3408 138.33 22.156 137.913 21.94C137.495 21.724 137.123 21.4504 136.797 21.1192C136.47 20.788 136.206 20.3824 136.005 19.9024C135.803 19.4224 135.702 18.8416 135.702 18.16C135.702 17.5264 135.825 16.924 136.07 16.3528C136.314 15.7816 136.682 15.28 137.171 14.848C137.661 14.416 138.275 14.0728 139.014 13.8184C139.754 13.564 140.618 13.4368 141.606 13.4368C142.144 13.4368 142.665 13.4848 143.169 13.5808C143.673 13.6768 144.146 13.8112 144.587 13.984C145.029 14.1568 145.432 14.3608 145.797 14.596C146.162 14.8312 146.483 15.088 146.762 15.3664L145.754 16.936C145.638 17.1184 145.516 17.248 145.386 17.3248C145.257 17.4016 145.091 17.44 144.89 17.44C144.678 17.44 144.467 17.3944 144.256 17.3032L143.572 17.008C143.327 16.9024 143.051 16.804 142.744 16.7128C142.437 16.6216 142.086 16.576 141.693 16.576C141.126 16.576 140.692 16.684 140.39 16.9C140.087 17.116 139.936 17.416 139.936 17.8C139.936 18.0784 140.034 18.3088 140.231 18.4912C140.428 18.6736 140.69 18.8344 141.016 18.9736C141.342 19.1128 141.712 19.2448 142.125 19.3696C142.538 19.4944 142.96 19.6336 143.392 19.7872C143.824 19.9408 144.246 20.1208 144.659 20.3272C145.072 20.5336 145.442 20.788 145.768 21.0904C146.094 21.3928 146.356 21.76 146.553 22.192C146.75 22.624 146.848 23.1424 146.848 23.7472C146.848 24.4864 146.714 25.168 146.445 25.792C146.176 26.416 145.775 26.9536 145.242 27.4048C144.71 27.856 144.052 28.2064 143.27 28.456ZM154.077 28.8304C154.557 28.8304 154.998 28.7848 155.402 28.6936C155.805 28.6024 156.182 28.4776 156.532 28.3192C156.882 28.1608 157.211 27.9688 157.518 27.7432C157.826 27.5176 158.123 27.2656 158.411 26.9872L158.685 27.8512C158.858 28.3504 159.222 28.6 159.779 28.6H162.544V13.6672H158.08V24.3088C157.677 24.6736 157.262 24.9568 156.834 25.1584C156.407 25.36 155.949 25.4608 155.459 25.4608C154.806 25.4608 154.312 25.2592 153.976 24.856C153.64 24.4528 153.472 23.8816 153.472 23.1424V13.6672H149.008V23.1424C149.008 23.968 149.118 24.7264 149.339 25.4176C149.56 26.1088 149.886 26.7088 150.318 27.2176C150.75 27.7264 151.281 28.1224 151.91 28.4056C152.538 28.6888 153.261 28.8304 154.077 28.8304ZM170.464 17.8V28.6H166V13.6672H168.765C169.043 13.6672 169.276 13.7296 169.463 13.8544C169.65 13.9792 169.782 14.1664 169.859 14.416L170.104 15.2224C170.354 14.9632 170.613 14.7256 170.882 14.5096C171.15 14.2936 171.441 14.1064 171.753 13.948C172.065 13.7896 172.401 13.6648 172.761 13.5736C173.121 13.4824 173.517 13.4368 173.949 13.4368C174.851 13.4368 175.598 13.6696 176.188 14.1352C176.778 14.6008 177.227 15.2224 177.534 16C177.784 15.5392 178.089 15.1456 178.449 14.8192C178.809 14.4928 179.198 14.2288 179.615 14.0272C180.033 13.8256 180.474 13.6768 180.94 13.5808C181.406 13.4848 181.869 13.4368 182.33 13.4368C183.184 13.4368 183.942 13.564 184.605 13.8184C185.267 14.0728 185.822 14.4424 186.268 14.9272C186.714 15.412 187.053 16.0072 187.283 16.7128C187.514 17.4184 187.629 18.2176 187.629 19.1104V28.6H183.165V19.1104C183.165 17.5648 182.502 16.792 181.178 16.792C180.573 16.792 180.071 16.9912 179.673 17.3896C179.274 17.788 179.075 18.3616 179.075 19.1104V28.6H174.611V19.1104C174.611 18.256 174.443 17.656 174.107 17.3104C173.771 16.9648 173.277 16.792 172.624 16.792C172.221 16.792 171.839 16.8832 171.479 17.0656C171.119 17.248 170.781 17.4928 170.464 17.8Z" fill="#D8D8D8"/>
<rect width="37.6" height="37.6" rx="5.6" fill="#D8D8D8"/>
<path fill-rule="evenodd" clip-rule="evenodd" d="M19.2 26.8L10.2657 31.4971L11.972 21.5485L4.74394 14.5029L14.7328 13.0515L19.2 4L23.6672 13.0515L33.6561 14.5029L26.428 21.5485L28.1343 31.4971L19.2 26.8Z" fill="white"/>
</svg>
